<svg width="260" height="260" viewBox="0 0 260 260" fill="none" xmlns="http://www.w3.org/2000/svg">
<path d="M46.8422 73.8735L124.749 31.4618C128.982 29.1574 134.108 29.2166 138.287 31.6181L213.383 74.7756C216.826 76.7541 218.948 80.4218 218.948 84.3925V176.056C218.948 180.035 216.817 183.71 213.362 185.685L135.557 230.168C132.119 232.133 127.893 232.117 124.471 230.124L46.5644 184.763C43.1524 182.776 41.0537 179.125 41.0537 175.177V83.6153C41.0537 79.553 43.2744 75.8157 46.8422 73.8735Z" fill="#151515"/>
<path fill-rule="evenodd" clip-rule="evenodd" d="M129.952 130.911V218.35C131.475 218.35 132.475 218.02 133.842 217.239L203.857 177.231C206.621 175.647 207.749 173.193 207.749 170.007V88.8779C207.749 87.2794 207.412 86.3232 206.636 84.9882L132.192 127.051C130.807 127.842 129.952 129.315 129.952 130.911ZM168.849 181.12C168.849 183.343 168.016 184.454 166.071 185.566L142.733 198.902C141.066 200.013 138.843 199.458 138.843 197.235V137.777C138.843 136.187 140.243 134.126 141.621 133.332L194.967 102.77C196.448 101.917 197.745 103.283 197.745 104.993V136.666C197.745 138.308 196.971 139.783 195.522 140.556L171.628 153.337C170.179 154.109 168.849 155.584 168.849 157.226V181.12Z" fill="#999999"/>
<path fill-rule="evenodd" clip-rule="evenodd" d="M52.1538 170.005V88.8761C52.1538 85.6856 53.8291 82.6796 56.5992 81.0966L124.392 42.755C125.852 41.9809 128.281 41.6436 129.949 41.6436C131.616 41.6436 134.187 42.0565 135.506 42.755L202.742 81.0966C204.072 81.8827 205.88 83.6933 206.632 84.9864L132.171 127.218C130.786 128.009 129.949 129.512 129.949 131.108V218.349C128.426 218.349 126.87 218.018 125.503 217.238L57.1549 177.785C54.3847 176.201 52.1538 173.195 52.1538 170.005ZM62.156 104.991V136.664C62.156 138.887 62.7117 139.998 64.9344 141.11L88.2728 154.446C90.4955 155.558 91.0512 157.224 91.0512 158.891V181.119C91.0512 183.341 91.6069 184.452 93.8296 185.564L117.168 198.9C119.39 200.012 121.058 199.456 121.058 197.233V137.776C121.058 136.109 120.502 134.441 118.28 133.331L66.0457 103.324C64.3787 102.212 62.156 102.768 62.156 104.991ZM153.287 67.2047L132.727 78.8739C131.06 79.9853 128.837 79.9853 127.171 78.8739L106.61 67.2047C105.257 66.4398 103.52 66.4437 102.165 67.2047L76.6036 81.6523C74.3809 82.7637 74.3809 84.9864 76.6036 86.0977L127.726 115.549C129.094 116.332 130.803 116.332 132.171 115.549L183.293 86.0977C184.961 84.9864 185.517 82.7637 183.293 81.6523L157.733 67.2047C156.377 66.4437 154.641 66.4398 153.287 67.2047Z" fill="#F2F2F2"/>
</svg>